<?xml version="1.0" standalone="no"?>
<!DOCTYPE svg PUBLIC "-//W3C//DTD SVG 20010904//EN"
 "http://www.w3.org/TR/2001/REC-SVG-20010904/DTD/svg10.dtd">
<svg version="1.0" xmlns="http://www.w3.org/2000/svg"
 width="512.000000pt" height="512.000000pt" viewBox="0 0 512.000000 512.000000"
 preserveAspectRatio="xMidYMid meet">

<g transform="translate(0.000000,512.000000) scale(0.100000,-0.100000)"
fill="#000000" stroke="none">
<path d="M1992 5094 c-110 -55 -200 -246 -219 -462 -6 -71 -7 -74 -42 -96 -20
-12 -251 -144 -515 -292 -357 -200 -481 -275 -487 -292 -5 -14 -8 -840 -7
-1969 l3 -1945 24 -19 c23 -18 58 -19 1330 -19 1056 1 1309 3 1323 14 25 19
38 60 38 122 0 30 1 54 3 54 30 0 907 204 923 215 13 8 26 25 29 38 5 18 -798
3661 -835 3789 -6 21 -19 42 -29 47 -9 6 -265 84 -567 175 -302 91 -556 170
-563 174 -9 5 -20 40 -27 83 -42 247 -162 409 -305 409 -14 0 -48 -12 -77 -26z
m131 -151 c14 -16 37 -53 51 -84 25 -57 58 -170 52 -177 -2 -1 -37 7 -78 19
l-75 22 -72 -37 c-82 -42 -83 -41 -56 63 30 116 94 221 134 221 10 0 29 -12
44 -27z m565 -728 l602 -338 0 -635 0 -636 22 -23 c35 -38 89 -29 113 18 13
24 15 128 15 682 0 638 0 655 -20 680 -11 14 -166 107 -345 207 -179 100 -324
184 -322 187 7 6 650 -189 663 -201 14 -13 819 -3625 810 -3633 -3 -4 -181
-45 -396 -93 l-390 -87 -2 984 -3 985 -29 25 c-31 27 -66 25 -98 -4 -17 -15
-18 -80 -18 -1100 l0 -1083 -1210 0 -1210 0 0 1864 0 1864 446 251 c245 138
448 251 449 251 2 0 6 -28 10 -62 4 -35 16 -96 27 -137 19 -73 19 -73 -2 -115
-106 -221 53 -467 295 -454 222 11 362 243 267 443 -29 60 -86 121 -139 148
-69 36 -153 41 -262 15 -18 -4 -38 87 -42 182 l-3 65 80 46 c43 25 81 45 84
44 3 -1 276 -154 608 -340z m-544 -145 c13 -13 -42 -70 -66 -70 -11 0 -33 15
-49 33 l-30 32 28 13 c30 13 101 8 117 -8z m-137 -207 c57 -23 113 -17 176 21
56 34 57 34 57 12 0 -31 -38 -86 -79 -113 -91 -61 -223 2 -245 115 l-6 34 33
-28 c17 -15 46 -33 64 -41z"/>
<path d="M2000 2819 c-249 -21 -442 -160 -530 -381 -46 -117 -28 -156 79 -165
l60 -6 15 -51 c108 -369 599 -458 833 -151 62 82 86 152 91 267 6 144 -35 252
-135 351 -109 109 -237 151 -413 136z m221 -179 c59 -30 116 -85 145 -142 43
-84 71 -78 -356 -78 -209 0 -380 4 -380 8 0 29 109 143 170 179 120 71 315 86
421 33z m169 -380 c0 -27 -53 -110 -95 -149 -75 -69 -166 -96 -272 -79 -66 10
-121 39 -177 94 -36 35 -75 103 -76 132 0 9 69 12 310 12 207 0 310 -3 310
-10z"/>
<path d="M1572 1754 c-60 -30 -106 -88 -121 -155 -14 -60 -14 -787 -1 -826 6
-17 22 -35 36 -42 18 -8 191 -11 599 -11 l574 0 28 24 28 24 0 414 c0 399 -1
415 -21 458 -26 56 -67 97 -119 121 -37 17 -75 19 -496 19 l-455 0 -52 -26z
m331 -256 l97 -132 0 -248 0 -248 -205 0 -206 0 3 354 3 354 24 26 c22 24 31
26 105 26 l81 -1 98 -131z m257 127 c0 -9 -74 -105 -81 -105 -4 0 -25 25 -48
55 l-42 55 86 0 c47 0 85 -2 85 -5z m374 -16 l26 -20 0 -360 0 -359 -205 0
-205 0 0 243 0 243 102 137 103 137 76 0 c62 0 81 -4 103 -21z"/>
</g>
</svg>
